<svg xmlns="http://www.w3.org/2000/svg" viewBox="0 0 110.59 75.89"><defs><style>.cls-1{fill:#8c8c8c;}.cls-2{fill:#bfbfbf;}.cls-3{fill:#1a1a1a;}</style></defs><title>favicon</title><g id="레이어_2" data-name="레이어 2"><g id="레이어_1-2" data-name="레이어 1"><path class="cls-1" d="M65.34.06C55,.17,50.87,8.5,49.86,11.05L28.51,75.87l12.38,0c11.17,0,15.17-9.59,15.86-11.51.08-.23.13-.38.14-.42L78,.05Z"/><path class="cls-2" d="M5.8,45.85.45,62.14l-.12.43c-.77,3.55-.18,6.68,1.68,9,2.25,2.85,6.15,4.29,11.6,4.28h6.63l10-30.06Z"/><path class="cls-3" d="M86.21,0,73.86,37.55l13,0h0c6.82-.13,12-3.33,14.27-8.79L110.59,0Z"/></g></g></svg>