<svg xmlns="http://www.w3.org/2000/svg" viewBox="0 0 30.37 30.37"><defs><style>.cls-1{fill:#231815;}</style></defs><title>자사몰_페이스북</title><g id="레이어_2" data-name="레이어 2"><g id="레이어_2-2" data-name="레이어 2"><path class="cls-1" d="M1.68,30.37H16.22V18.61h-4V14h4V10.65c0-3.93,2.4-6.06,5.9-6.06a31.61,31.61,0,0,1,3.54.18v4.1H23.23c-1.91,0-2.27.9-2.27,2.23V14h4.53l-.59,4.58H21V30.37H28.7a1.67,1.67,0,0,0,1.67-1.67v-27A1.68,1.68,0,0,0,28.7,0h-27A1.68,1.68,0,0,0,0,1.68v27A1.68,1.68,0,0,0,1.68,30.37Z"/></g></g></svg>