<svg xmlns="http://www.w3.org/2000/svg" viewBox="0 0 30.14 29.91"><defs><style>.cls-1{fill:#231815;}</style></defs><title>자사몰_인스타</title><g id="레이어_2" data-name="레이어 2"><g id="레이어_2-2" data-name="레이어 2"><path class="cls-1" d="M5.48,29.91H24.66a5.48,5.48,0,0,0,5.48-5.48V5.48A5.48,5.48,0,0,0,24.66,0H5.48A5.48,5.48,0,0,0,0,5.48v19A5.48,5.48,0,0,0,5.48,29.91ZM3.93,10.25a6.43,6.43,0,0,1,6.43-6.43h9.42a6.42,6.42,0,0,1,6.42,6.43v9.41a6.42,6.42,0,0,1-6.42,6.43H10.36a6.43,6.43,0,0,1-6.43-6.43Z"/><path class="cls-1" d="M10.25,24.1h9.64a4.27,4.27,0,0,0,4.26-4.27V10.19a4.26,4.26,0,0,0-4.26-4.26H10.25A4.27,4.27,0,0,0,6,10.19v9.64A4.27,4.27,0,0,0,10.25,24.1ZM21,7.67A1.35,1.35,0,1,1,19.69,9,1.34,1.34,0,0,1,21,7.67Zm-6,1.56A5.78,5.78,0,1,1,9.29,15,5.78,5.78,0,0,1,15.07,9.23Z"/><path class="cls-1" d="M15.07,18.76A3.75,3.75,0,1,0,11.32,15,3.74,3.74,0,0,0,15.07,18.76Z"/></g></g></svg>