<svg xmlns="http://www.w3.org/2000/svg" viewBox="0 0 119.66 30.41"><defs><style>.cls-1{fill:#3e3a39;}.cls-2{fill:#0088c8;}.cls-3{fill:#23adde;}.cls-4{fill:#004274;}</style></defs><title>JPS_logo</title><g id="레이어_2" data-name="레이어 2"><g id="레이어_1-2" data-name="레이어 1"><path class="cls-1" d="M54.72,29.61a2.8,2.8,0,0,1-.63-.06.87.87,0,0,1-.4-.22.93.93,0,0,1-.21-.42,3,3,0,0,1-.06-.64V26.8a3,3,0,0,1,.06-.64.93.93,0,0,1,.21-.42.82.82,0,0,1,.4-.22,2.61,2.61,0,0,1,.63-.07h2.19a2.71,2.71,0,0,1,.62.06.83.83,0,0,1,.4.23.77.77,0,0,1,.22.42,2.84,2.84,0,0,1,.06.64v1.46a2.36,2.36,0,0,1-.07.64.83.83,0,0,1-.21.42.82.82,0,0,1-.4.22,2.25,2.25,0,0,1-.62.07ZM57.4,26.8a.64.64,0,0,0-.11-.42.54.54,0,0,0-.38-.11H54.72a.49.49,0,0,0-.38.11.56.56,0,0,0-.11.42v1.46a1.72,1.72,0,0,0,0,.26.42.42,0,0,0,.09.16.22.22,0,0,0,.15.08.75.75,0,0,0,.23,0h2.19a.53.53,0,0,0,.38-.1.64.64,0,0,0,.11-.42Z"/><path class="cls-1" d="M63.23,28.4a1.79,1.79,0,0,1-.08.56.71.71,0,0,1-.23.37.93.93,0,0,1-.42.21,2.8,2.8,0,0,1-.63.06H58.93l0-.41,0-.41h2.83l.27,0a.38.38,0,0,0,.18-.08.34.34,0,0,0,.09-.14.69.69,0,0,0,0-.22c0-.18,0-.3-.12-.36a.68.68,0,0,0-.44-.1H60.15a2.28,2.28,0,0,1-.63-.07,1,1,0,0,1-.41-.2.84.84,0,0,1-.22-.35,1.85,1.85,0,0,1-.06-.5v-.14a1.72,1.72,0,0,1,.06-.53.73.73,0,0,1,.22-.36,1.18,1.18,0,0,1,.42-.21,2.77,2.77,0,0,1,.64-.07h2.91c0,.14,0,.28,0,.42l-.06.41H60.17a.65.65,0,0,0-.41.11.47.47,0,0,0-.11.35.49.49,0,0,0,.11.35.59.59,0,0,0,.41.11h1.66a2.56,2.56,0,0,1,.66.06,1.22,1.22,0,0,1,.43.19.82.82,0,0,1,.23.34,1.32,1.32,0,0,1,.08.47Z"/><path class="cls-1" d="M68,29.6V26.87L66.65,29.6H65.9l-1.32-2.72V29.6h-.75V25.44h.89l1.56,3.32,1.56-3.33h.87V29.6Z"/><path class="cls-1" d="M69.43,29.59V25.43h4v.82H70.25v.92h3.09v.67H70.25v.93h3.18v.82Z"/><path class="cls-1" d="M75.4,29.59V26.25H73.88v-.82h3.85v.82H76.21v3.33Z"/><path class="cls-1" d="M78.26,29.58V25.42h.82v4.16Z"/><path class="cls-1" d="M89.37,28.36a1.91,1.91,0,0,1-.08.57.75.75,0,0,1-.23.37,1,1,0,0,1-.42.21,2.8,2.8,0,0,1-.63.06H85.07l0-.41,0-.41H88a1.06,1.06,0,0,0,.27,0,.3.3,0,0,0,.18-.08.28.28,0,0,0,.09-.14.69.69,0,0,0,0-.22.5.5,0,0,0-.12-.36.68.68,0,0,0-.44-.1H86.29a2.8,2.8,0,0,1-.63-.06.9.9,0,0,1-.4-.21.77.77,0,0,1-.23-.35,1.77,1.77,0,0,1-.06-.49v-.14a2,2,0,0,1,.06-.53.83.83,0,0,1,.23-.37.93.93,0,0,1,.41-.2,2.31,2.31,0,0,1,.64-.07h2.91c0,.15,0,.28,0,.42l-.06.41H86.31a.6.6,0,0,0-.41.1.49.49,0,0,0-.11.35.5.5,0,0,0,.11.36.6.6,0,0,0,.41.1H88a3.1,3.1,0,0,1,.66.06,1.07,1.07,0,0,1,.43.2.76.76,0,0,1,.23.33,1.42,1.42,0,0,1,.08.48Z"/><path class="cls-1" d="M98.41,29.55a2.8,2.8,0,0,1-.63-.06,1,1,0,0,1-.4-.22.93.93,0,0,1-.21-.42,3,3,0,0,1-.06-.64V26.74a2.9,2.9,0,0,1,.06-.64.93.93,0,0,1,.21-.42.82.82,0,0,1,.4-.22,2.61,2.61,0,0,1,.63-.07h2.19a2.65,2.65,0,0,1,.62.06.87.87,0,0,1,.41.23.83.83,0,0,1,.21.42,2.77,2.77,0,0,1,.07.64V28.2a2.36,2.36,0,0,1-.07.64.93.93,0,0,1-.21.42.82.82,0,0,1-.4.22,2.25,2.25,0,0,1-.62.07Zm2.68-2.81a.64.64,0,0,0-.11-.42.54.54,0,0,0-.38-.11H98.41a.54.54,0,0,0-.38.12.56.56,0,0,0-.11.42v1.46a.93.93,0,0,0,0,.26.3.3,0,0,0,.08.16.28.28,0,0,0,.15.08.75.75,0,0,0,.23,0h2.19a.57.57,0,0,0,.39-.1.65.65,0,0,0,.1-.42Z"/><path class="cls-1" d="M102.62,29.55v-.88h.75v.88Z"/><path class="cls-1" d="M104.12,30.2l.25-.65h-.25v-.88h.75v.78l-.47.89Z"/><path class="cls-1" d="M105.59,29.54V25.38h.81v3.34h3.13v.82Z"/><path class="cls-1" d="M110.57,29.54V26.2h-1.52v-.82h3.85v.82h-1.52v3.34Z"/><path class="cls-1" d="M113.4,29.53V25.37h3.51a2.32,2.32,0,0,1,.63.06.81.81,0,0,1,.61.65,2.8,2.8,0,0,1,.06.63v1.47a2.41,2.41,0,0,1-.07.64.93.93,0,0,1-.21.42.82.82,0,0,1-.4.22,2.61,2.61,0,0,1-.63.07Zm4-2.81a.6.6,0,0,0-.11-.42.56.56,0,0,0-.38-.11h-2.68v2.52h2.68a.54.54,0,0,0,.38-.11.6.6,0,0,0,.11-.42Z"/><path class="cls-1" d="M118.91,29.53v-.88h.75v.87Z"/><path class="cls-1" d="M93.14,25.4a2.8,2.8,0,0,0-.63.06.78.78,0,0,0-.6.64,2.48,2.48,0,0,0-.06.65v1.46a2.93,2.93,0,0,0,.06.65.84.84,0,0,0,.21.41.83.83,0,0,0,.4.23,2.71,2.71,0,0,0,.62.06h3.18v-.82H93.15a.93.93,0,0,1-.26,0,.24.24,0,0,1-.14-.1.29.29,0,0,1-.07-.16.82.82,0,0,1,0-.23V26.75a.6.6,0,0,1,.1-.41.51.51,0,0,1,.38-.12h3.17v-.83Z"/><path class="cls-1" d="M81.12,25.42a2.65,2.65,0,0,0-.62.06.82.82,0,0,0-.4.22.93.93,0,0,0-.21.42,2.93,2.93,0,0,0-.06.65v1.46a2.44,2.44,0,0,0,.07.65.84.84,0,0,0,.21.41.83.83,0,0,0,.39.22,2.28,2.28,0,0,0,.63.07H84.3v-.82H81.13a.85.85,0,0,1-.25,0,.28.28,0,0,1-.15-.1.46.46,0,0,1-.07-.16,1.66,1.66,0,0,1,0-.24V26.77a.64.64,0,0,1,.11-.42.54.54,0,0,1,.38-.11H84.3v-.82Z"/><path class="cls-1" d="M49.45,25.46a2.8,2.8,0,0,0-.63.06.82.82,0,0,0-.6.64,2.44,2.44,0,0,0-.07.65v1.46a2.93,2.93,0,0,0,.06.65.88.88,0,0,0,.21.42.91.91,0,0,0,.4.22,2.65,2.65,0,0,0,.62.06h3.17V28.8H49.46a.93.93,0,0,1-.26,0,.31.31,0,0,1-.15-.1.59.59,0,0,1-.07-.16,1.55,1.55,0,0,1,0-.23V26.81a.56.56,0,0,1,.1-.41.51.51,0,0,1,.38-.12h3.17v-.83Z"/><path class="cls-1" d="M65.84,17.74l-17.62,0h0v4l17.45,0a4.07,4.07,0,0,0,1.61-.33,4.37,4.37,0,0,0,1.33-.89,4.07,4.07,0,0,0,.9-1.32,4.32,4.32,0,0,0,.32-1.43c0-.07,0-.14,0-.21l0-17.45h-4Z"/><path class="cls-1" d="M94,1.3A4.27,4.27,0,0,0,92.69.4,4.11,4.11,0,0,0,91.05.07L73.63.09l0,21.6h4l0-17.64L91.27,4v6.25l-11.45,0v4l11.24,0a4,4,0,0,0,1.64-.34A4.24,4.24,0,0,0,95,11.69a4,4,0,0,0,.32-1.62V4.24A4.23,4.23,0,0,0,94,1.3Z"/><path class="cls-1" d="M119.55,4h0V0L102.1,0a4.29,4.29,0,0,0-1.64.34,4.18,4.18,0,0,0-1.32.88,4.17,4.17,0,0,0-.88,1.33,4.07,4.07,0,0,0-.33,1.64V8.65a4,4,0,0,0,.34,1.64,4.18,4.18,0,0,0,.88,1.32,4.23,4.23,0,0,0,1.33.88,4,4,0,0,0,1.59.33h0l13.46,0v4.87L98,17.69h0v4l17.44,0A4,4,0,0,0,117,21.3a4.24,4.24,0,0,0,1.34-.89,4.07,4.07,0,0,0,.9-1.32,4.28,4.28,0,0,0,.32-1.64V13a4.11,4.11,0,0,0-.33-1.64,4.26,4.26,0,0,0-.91-1.32A4.39,4.39,0,0,0,117,9.17a3.77,3.77,0,0,0-1.56-.33h0l-13.49,0V4Z"/><path class="cls-2" d="M26,.2a6.71,6.71,0,0,0-6.17,4.38L11.36,30.4h4.93a6.77,6.77,0,0,0,6.32-4.58,1.47,1.47,0,0,0,.05-.17L31.08.19Z"/><path class="cls-3" d="M2.31,18.44.18,24.93l0,.17A4.22,4.22,0,0,0,.8,28.7c.9,1.14,2.45,1.71,4.62,1.71H8.06l4-12Z"/><path class="cls-4" d="M34.34.19,29.43,15.13h5.18a5.89,5.89,0,0,0,5.68-3.5L44.06.17Z"/></g></g></svg>