<svg xmlns="http://www.w3.org/2000/svg" viewBox="0 0 30.82 30.82"><defs><style>.cls-1{fill:#231815;}</style></defs><title>자사몰_카카오톡</title><g id="레이어_2" data-name="레이어 2"><g id="레이어_2-2" data-name="레이어 2"><path class="cls-1" d="M2.47,30.82H28.35a2.48,2.48,0,0,0,2.47-2.47V2.47A2.48,2.48,0,0,0,28.35,0H2.47A2.48,2.48,0,0,0,0,2.47V28.35A2.48,2.48,0,0,0,2.47,30.82ZM15.73,4.93c6.52,0,11.82,4.18,11.82,9.34s-5.3,9.33-11.82,9.33a14.84,14.84,0,0,1-2.13-.15L8.81,26.68a.37.37,0,0,1-.21.08.31.31,0,0,1-.24-.1.33.33,0,0,1-.08-.35l1.11-4.16C6.1,20.49,3.9,17.58,3.9,14.27,3.9,9.11,9.2,4.93,15.73,4.93Z"/><path class="cls-1" d="M8.05,12.79v4.43a1.09,1.09,0,0,0,0,.18.71.71,0,0,0,.23.39.72.72,0,0,0,.44.14.67.67,0,0,0,.5-.2.72.72,0,0,0,.18-.51V12.79H10.7a.79.79,0,0,0,.5-.16.54.54,0,0,0,.2-.44.53.53,0,0,0,0-.13.51.51,0,0,0-.24-.35.82.82,0,0,0-.45-.12H6.76a.81.81,0,0,0-.5.16.51.51,0,0,0-.21.44.59.59,0,0,1,0,.13.48.48,0,0,0,.24.34.86.86,0,0,0,.46.13Z"/><path class="cls-1" d="M9.88,17.06a.81.81,0,0,0,0,.25.61.61,0,0,0,0,.14.55.55,0,0,0,.21.35.62.62,0,0,0,.4.13.56.56,0,0,0,.61-.39l.36-1h2.19l.35,1a.58.58,0,0,0,.61.39.61.61,0,0,0,.45-.18.64.64,0,0,0,.2-.44s0-.1,0-.17a3.46,3.46,0,0,0-.11-.38L13.45,12a.73.73,0,0,0-.28-.41.88.88,0,0,0-.45-.11h-.33a.76.76,0,0,0-.41.1.66.66,0,0,0-.25.33L10,16.76C9.94,16.86,9.9,17,9.88,17.06Zm2.66-4h0l.78,2.5h-1.6Z"/><path class="cls-1" d="M15.72,17.68a.89.89,0,0,0,.52.13h2.83a.81.81,0,0,0,.51-.15.55.55,0,0,0,.18-.57.52.52,0,0,0-.23-.35.83.83,0,0,0-.46-.12H16.8V12.19a1.09,1.09,0,0,0,0-.18.71.71,0,0,0-1.17-.34.75.75,0,0,0-.18.52V17a1.12,1.12,0,0,0,0,.27A.6.6,0,0,0,15.72,17.68Z"/><path class="cls-1" d="M19.93,17.4a.71.71,0,0,0,.23.39.72.72,0,0,0,.44.14.67.67,0,0,0,.5-.2.72.72,0,0,0,.18-.51V15.81L22,15l1.57,2.53a.85.85,0,0,0,.27.29.68.68,0,0,0,.34.08.85.85,0,0,0,.5-.16.65.65,0,0,0,.2-.53v0a.1.1,0,0,1,0,0,1.31,1.31,0,0,0-.2-.4l-.05-.08L23,14.06l1.4-1.53a1.53,1.53,0,0,0,.16-.22.55.55,0,0,0,.06-.26v-.11a.49.49,0,0,0-.23-.33.64.64,0,0,0-.4-.13.45.45,0,0,0-.29.08,1.65,1.65,0,0,0-.26.23l-2.14,2.46V12.19a1.09,1.09,0,0,0,0-.18.71.71,0,0,0-.23-.39.72.72,0,0,0-.44-.14.7.7,0,0,0-.5.19.75.75,0,0,0-.18.52v5A1.09,1.09,0,0,0,19.93,17.4Z"/></g></g></svg>