<svg xmlns="http://www.w3.org/2000/svg" viewBox="0 0 30.14 29.91"><defs><style>.cls-1{fill:#231815;}</style></defs><title>자사몰_블로그</title><g id="레이어_2" data-name="레이어 2"><g id="레이어_2-2" data-name="레이어 2"><path class="cls-1" d="M5.48,29.91H24.66a5.48,5.48,0,0,0,5.48-5.48V5.48A5.48,5.48,0,0,0,24.66,0H5.48A5.48,5.48,0,0,0,0,5.48v19A5.48,5.48,0,0,0,5.48,29.91ZM2.06,6.51a4.05,4.05,0,0,1,4-4.06H23.59a4.05,4.05,0,0,1,4,4.06v9.61a4,4,0,0,1-4,4.05h-6l-2,3.35a.59.59,0,0,1-.07.1.69.69,0,0,1-.59.34.69.69,0,0,1-.6-.35.39.39,0,0,1-.07-.09l-2.06-3.35h-6a4,4,0,0,1-4-4.05Z"/><path class="cls-1" d="M6.43,13.64a1.49,1.49,0,0,0,1.31.68A2.32,2.32,0,0,0,10,11.88S9.86,9.5,7.74,9.5a2.07,2.07,0,0,0-1.33.62V7.63H4.85v6.52H6.43Zm1-2.71a1,1,0,1,1-1,1A1,1,0,0,1,7.4,10.93Z"/><path class="cls-1" d="M11.16,10.3v3.85h1.51V9.94s.07-2.46-2.22-2.46V9S11.16,9,11.16,10.3Z"/><path class="cls-1" d="M16.36,14.32s2.65,0,2.65-2.39a2.38,2.38,0,0,0-2.65-2.41s-2.59,0-2.59,2.41A2.35,2.35,0,0,0,16.36,14.32Zm0-3.39a1,1,0,1,1-1,1A1,1,0,0,1,16.36,10.93Z"/><path class="cls-1" d="M22,14.24a1.8,1.8,0,0,0,1.37-.6V14a1,1,0,0,1-1,1.14H22v1.39h.61a2.28,2.28,0,0,0,2.29-2.45V9.67H23.32v.45A1.7,1.7,0,0,0,22,9.52a2.15,2.15,0,0,0-2.21,2.4S19.77,14.24,22,14.24Zm.44-3.31a1,1,0,1,1-1,1A1,1,0,0,1,22.39,10.93Z"/></g></g></svg>