<svg xmlns="http://www.w3.org/2000/svg" viewBox="0 0 30.57 30.34"><defs><style>.cls-1{fill:#231815;}</style></defs><title>자사몰_유튜브</title><g id="레이어_2" data-name="레이어 2"><g id="레이어_2-2" data-name="레이어 2"><path class="cls-1" d="M25,0H5.56A5.56,5.56,0,0,0,0,5.56V24.78a5.55,5.55,0,0,0,5.56,5.56H25a5.55,5.55,0,0,0,5.55-5.56V5.56A5.55,5.55,0,0,0,25,0Zm-1,15.28a32,32,0,0,1-.27,3.84,2.3,2.3,0,0,1-2.11,2c-.66.1-3.85.22-6.39.22h0c-2.53,0-5.72-.12-6.39-.22a2.3,2.3,0,0,1-2.11-2,34.18,34.18,0,0,1-.27-3.84v-.21a34.2,34.2,0,0,1,.27-3.85,2.31,2.31,0,0,1,2.11-2c.67-.1,3.85-.22,6.39-.22s5.72.12,6.38.22a2.31,2.31,0,0,1,2.11,2,32,32,0,0,1,.27,3.85Z"/><polygon class="cls-1" points="13.19 17.42 17.39 15.12 13.19 12.93 13.19 17.42"/></g></g></svg>